<svg width="34" height="49" viewBox="0 0 34 49" fill="none" xmlns="http://www.w3.org/2000/svg">
<g opacity="0.1">
<path d="M29.9889 7.48308L29.9094 7.28741C29.2737 5.72259 28.2606 4.33943 26.9604 3.2613C25.6602 2.18317 24.1134 1.44358 22.458 1.1085C20.8025 0.773412 19.0899 0.853243 17.4728 1.34089C15.8557 1.82853 14.3844 2.70881 13.1901 3.90323L13.19 3.90333L3.90808 13.1838L3.90722 13.1847C2.07329 15.0134 1.00246 17.4704 0.911389 20.0587C0.834421 22.2463 1.46221 24.3896 2.68536 26.18C3.06997 25.6667 3.49111 25.181 3.94574 24.727L29.9889 7.48308ZM29.9889 7.48308C30.7572 9.50195 30.8658 11.7038 30.3136 13.7752C27.9063 12.1642 25.0342 11.3617 22.1184 11.5062C18.7702 11.6721 15.6028 13.0749 13.2299 15.4428L13.2292 15.4435L3.94618 24.7266L29.9889 7.48308Z" stroke="white" stroke-width="1.81013"/>
<path d="M5.05113 29.9707C5.10058 29.8742 5.143 29.7915 5.18853 29.7084C5.62007 28.9238 6.16063 28.2044 6.79408 27.5715L6.79438 27.5712L16.0783 18.2873C16.0785 18.287 16.0787 18.2868 16.0789 18.2866C17.7986 16.573 20.1084 15.5817 22.5352 15.516C24.9617 15.4503 27.3214 16.3148 29.1312 17.9323C29.22 18.0124 29.2989 18.0849 29.3738 18.1585L29.3737 18.1586L29.3791 18.1638L29.5076 18.2879L29.6238 18.4069C29.6246 18.4077 29.6254 18.4085 29.6262 18.4094C31.3507 20.203 32.3035 22.6011 32.2803 25.0892C32.257 27.5784 31.2587 29.9594 29.4995 31.7207L13.5008 47.7194L6.79523 40.9986C6.79519 40.9986 6.79515 40.9985 6.7951 40.9985C5.42616 39.6258 4.50935 37.8677 4.16745 35.9594C3.82554 34.0512 4.07491 32.084 4.88218 30.3214L4.88363 30.3182C4.93275 30.2098 4.97869 30.1118 5.02628 30.0191C5.03478 30.0026 5.04305 29.9864 5.05113 29.9707Z" stroke="#F3F3F3" stroke-width="1.81013"/>
</g>
</svg>
