<svg width="20" height="16" viewBox="0 0 20 16" fill="none" xmlns="http://www.w3.org/2000/svg">
<path fill-rule="evenodd" clip-rule="evenodd" d="M10.2877 0.00494095L10.0015 0.00012207C5.86059 0.00012207 2.12877 2.9232 0.0604266 7.70596C-0.0207932 7.89377 -0.0207932 8.10648 0.0604266 8.29429L0.203751 8.61691C2.24589 13.0933 5.77495 15.8645 9.71131 15.9953L9.99751 16.0001C14.1384 16.0001 17.8702 13.077 19.9386 8.29429C20.0208 8.10411 20.0198 7.88852 19.9356 7.69916L19.7964 7.38576C17.7492 2.90103 14.2187 0.135588 10.2877 0.00494095ZM10.0085 1.48955L10.2475 1.49469L10.5145 1.50858C13.7117 1.73497 16.6521 4.10566 18.4285 7.99924L18.4192 8.02326C16.5982 12.0006 13.5564 14.3854 10.2584 14.5051L10.0035 14.5089L9.74644 14.5055L9.48012 14.4916C6.38223 14.2722 3.52589 12.0345 1.73866 8.35983L1.56951 7.99924L1.72609 7.66632C3.61069 3.77328 6.69099 1.4904 10.0085 1.48955ZM9.99879 4.11363C7.83839 4.11363 6.08779 5.8533 6.08779 8.00036C6.08779 10.1466 7.83858 11.8861 9.99879 11.8861C12.1591 11.8861 13.9108 10.1465 13.9108 8.00036C13.9108 5.85341 12.1593 4.11363 9.99879 4.11363ZM9.99864 5.60391C11.3308 5.60391 12.4106 6.67654 12.4106 8.00034C12.4106 9.32326 11.3307 10.3958 9.99864 10.3958C8.66685 10.3958 7.58764 9.32352 7.58764 8.00034C7.58764 6.67627 8.66673 5.60391 9.99864 5.60391Z" fill="#A16AE8"/>
</svg>
